:SAMPLES-PER-SECOND 30
:FULLY-SPECIFIED
:DEGREES
392
root  -24.2733 29.6032 -4.43438 -170.603 -19.2203 -164.043
RightUpLeg  -32.5511 -7.91073 -13.1561
RightLeg  62.2432 10.2139 16.0905
RightFoot  33.4529 -3.12989 10.8192
RightToes  -78.8067 -0.576764 -0.416927
Spine  5.39374 0.377293 -2.24618
Spine1  10.7526 0.762726 -3.39098
HEad  -48.5373 -0.0941425 -12.3773
LeftShoulder1  -1.94126e-019 -3.10601e-018 -2.51263e-017
LeftArm  -28.6871 -7.94054 -39.3124
LeftForeArm  32.5229 -31.1911 -4.9523
LeftHand  -0.400874 1.57647 12.1205
RightShoulder  -4.96962e-017 0 -2.36833e-017
RightArm  -19.0806 -34.2579 58.0208
RightForeArm  47.103 43.5495 7.47268
RightHand  -0.689527 1.71656 -11.4137
LeftUpLeg  -63.7543 12.5906 0.838522
LeftLeg  66.8714 12.0522 22.4338
LeftFoot  -15.2048 -0.956226 -6.99357
LeftToes  21.2255 1.31378e-006 1.14341e-007
393
root  -25.6089 29.4687 -5.04411 -171.087 -24.1293 -163.018
RightUpLeg  -35.2856 -2.45198 -14.8499
RightLeg  66.4977 8.56226 16.0505
RightFoot  37.3091 -3.671 11.281
RightToes  -50.0983 -0.30375 -0.364782
Spine  6.16015 -0.752286 -2.42211
Spine1  12.2587 -1.66728 -3.43169
HEad  -53.0521 2.72822 -13.1726
LeftShoulder1  -1.94126e-019 -3.10601e-018 -2.51263e-017
LeftArm  -34.9811 -15.2494 -43.8168
LeftForeArm  28.1641 -27.7499 -4.38593
LeftHand  -0.346514 1.84918 11.228
RightShoulder  -4.96962e-017 0 -2.36833e-017
RightArm  -18.2167 -36.7569 57.2069
RightForeArm  52.9444 35.9572 5.08691
RightHand  -0.605515 2.04596 -9.62794
LeftUpLeg  -63.1966 9.89431 -0.712175
LeftLeg  67.6071 10.5174 20.4403
LeftFoot  -19.313 -1.36771 -7.86382
LeftToes  25.5477 1.31378e-006 1.14341e-007
394
root  -26.9633 29.4177 -5.48428 -171.127 -29.3104 -161.702
RightUpLeg  -39.4876 -1.72797 -14.8246
RightLeg  68.6229 2.73389 5.66845
RightFoot  31.1973 -0.728539 3.11452
RightToes  -43.1487 -0.244113 -0.332209
Spine  7.08147 -1.86904 -2.14745
Spine1  13.942 -4.35029 -2.3455
HEad  -56.9946 3.83211 -13.3411
LeftShoulder1  -1.94126e-019 -3.10601e-018 -2.51263e-017
LeftArm  -34.3928 -21.2872 -50.2315
LeftForeArm  22.4826 -27.1816 -4.54939
LeftHand  -0.377149 1.2189 10.4481
RightShoulder  -4.96962e-017 0 -2.36833e-017
RightArm  -20.1432 -38.3459 56.6102
RightForeArm  55.4127 28.8597 3.39007
RightHand  -0.431583 2.46843 -6.57789
LeftUpLeg  -62.7127 7.79724 -2.48056
LeftLeg  67.1572 8.97352 17.3383
LeftFoot  -22.922 -1.60368 -7.73632
LeftToes  30.4444 1.31378e-006 1.14341e-007
395
root  -28.2289 29.5876 -5.66077 -168.701 -33.9583 -160.808
RightUpLeg  -47.4115 -2.75929 -13.7086
RightLeg  70.0427 -2.63156 -6.15816
RightFoot  20.8684 0.570089 -2.51698
RightToes  -29.8344 -0.142782 -0.250813
Spine  7.47066 -2.84571 -1.58684
Spine1  14.4734 -6.78528 -0.811899
HEad  -60.1235 4.55474 -13.1979
LeftShoulder1  -1.94126e-019 -3.10601e-018 -2.51263e-017
LeftArm  -29.645 -25.9776 -57.8034
LeftForeArm  20.7757 -28.2886 -4.88309
LeftHand  -0.410455 0.187425 9.21184
RightShoulder  -4.96962e-017 0 -2.36833e-017
RightArm  -31.8765 -38.413 56.5502
RightForeArm  65.0774 21.8032 3.82332
RightHand  -0.251027 2.13933 -4.05652
LeftUpLeg  -63.8308 8.61614 -6.29462
LeftLeg  64.6122 6.6367 11.7297
LeftFoot  -25.4001 -1.32755 -5.7243
LeftToes  35.827 1.31378e-006 1.14341e-007
396
root  -29.5794 29.9563 -5.78595 -166.367 -38.4732 -160.347
RightUpLeg  -55.3436 -3.31558 -12.0732
RightLeg  69.1523 -2.70871 -6.07218
RightFoot  10.1139 0.162187 -1.25433
RightToes  -21.6136 -0.0906352 -0.189668
Spine  7.89142 -3.79164 -0.774576
Spine1  15.021 -9.05026 0.979856
HEad  -62.1283 5.07394 -12.2114
LeftShoulder1  -1.94126e-019 -3.10601e-018 -2.51263e-017
LeftArm  -22.551 -28.6702 -65.7619
LeftForeArm  23.8528 -30.9225 -5.31773
LeftHand  -0.377348 -1.36076 6.64563
RightShoulder  -4.96962e-017 0 -2.36833e-017
RightArm  -42.2831 -37.4355 56.3417
RightForeArm  72.4899 17.6929 3.15875
RightHand  -0.163936 -0.868569 -4.12803
LeftUpLeg  -63.3549 10.3891 -10.9527
LeftLeg  60.2176 3.66864 5.5163
LeftFoot  -26.6778 -0.71075 -2.83542
LeftToes  40.8702 1.31378e-006 1.14341e-007
397
root  -31.1131 30.4208 -5.91495 -164.802 -42.8578 -160.457
RightUpLeg  -62.856 -4.59241 -8.4932
RightLeg  67.1216 -1.04244 -2.22712
RightFoot  3.02409 0.0197835 -0.190852
RightToes  -18.9246 -0.0755454 -0.16812
Spine  8.60297 -4.58878 0.24195
Spine1  16.0861 -10.9388 3.09786
HEad  -63.2885 5.28451 -10.9541
LeftShoulder1  -1.94126e-019 -3.10601e-018 -2.51263e-017
LeftArm  -13.3206 -28.6102 -72.428
LeftForeArm  30.9063 -36.9273 -6.41724
LeftHand  -0.266806 -3.87073 3.61196
RightShoulder  -4.96962e-017 0 -2.36833e-017
RightArm  -45.2962 -37.457 56.2491
RightForeArm  70.302 18.2778 3.28272
RightHand  -0.0420088 -4.44753 -2.42571
LeftUpLeg  -60.3105 11.6786 -14.973
LeftLeg  54.7736 0.00708381 -0.00195818
LeftFoot  -26.4935 -0.0041446 0.143899
LeftToes  45.4737 1.31378e-006 1.14341e-007
398
root  -32.8503 30.991 -6.00946 -162.767 -46.9868 -160.99
RightUpLeg  -70.311 -5.56078 -2.63462
RightLeg  63.2624 -1.11795 -2.01455
RightFoot  0.708225 0.00395728 -0.0702086
RightToes  -22.7072 -0.0970589 -0.198225
Spine  9.18264 -5.15693 1.64296
Spine1  16.816 -12.2572 5.89456
HEad  -65.212 5.18313 -10.6524
LeftShoulder1  -1.94126e-019 -3.10601e-018 -2.51263e-017
LeftArm  -7.63836 -26.1211 -78.1065
LeftForeArm  40.1166 -44.8021 -8.19316
LeftHand  -0.0792669 -8.20563 1.05488
RightShoulder  -4.96962e-017 0 -2.36833e-017
RightArm  -47.1558 -35.9102 55.6058
RightForeArm  69.8479 16.9919 3.03144
RightHand  -0.0404853 -3.96733 -1.63608
LeftUpLeg  -55.8725 12.0188 -18.2057
LeftLeg  48.003 -3.74267 -3.65602
LeftFoot  -24.8086 0.482502 2.35499
LeftToes  47.9556 1.31378e-006 1.14341e-007
399
root  -34.7212 31.5085 -6.1687 -161.009 -49.8935 -160.908
RightUpLeg  -76.439 -4.38551 5.61238
RightLeg  56.7197 -1.33931 -1.85293
RightFoot  0.32659 0.00188296 -0.0618328
RightToes  -22.0946 -0.0934405 -0.193446
Spine  9.4365 -5.22413 3.33132
Spine1  16.8609 -12.5733 9.30595
HEad  -66.1359 5.5801 -10.2493
LeftShoulder1  -1.94126e-019 -3.10601e-018 -2.51263e-017
LeftArm  -4.13996 -22.073 -82.4251
LeftForeArm  39.6222 -50.6993 -10.4511
LeftHand  -0.190148 -8.46548 1.97376
RightShoulder  -4.96962e-017 0 -2.36833e-017
RightArm  -42.8737 -33.6185 53.4813
RightForeArm  66.5648 14.1209 2.48759
RightHand  -0.073505 -1.33088 -1.91873
LeftUpLeg  -51.757 13.0111 -20.21
LeftLeg  42.4124 -8.24255 -6.56616
LeftFoot  -22.0567 0.780567 4.16499
LeftToes  47.4218 1.31378e-006 1.14341e-007
400
root  -36.6698 31.8147 -6.45885 -159.527 -51.7581 -161.335
RightUpLeg  -79.1057 -2.46951 15.841
RightLeg  47.6543 3.16157 3.00438
RightFoot  2.95637 0.0111867 0.0947337
RightToes  -29.6848 -0.141757 -0.24977
Spine  9.51608 -4.9558 4.65555
Spine1  16.7351 -12.1811 12.014
HEad  -65.6882 5.65549 -7.84105
LeftShoulder1  -1.94126e-019 -3.10601e-018 -2.51263e-017
LeftArm  -4.27385 -16.4266 -85.5176
LeftForeArm  35.6556 -54.048 -12.3417
LeftHand  -0.297939 -7.47497 3.04935
RightShoulder  -4.96962e-017 0 -2.36833e-017
RightArm  -37.5406 -31.1592 51.42
RightForeArm  61.5279 11.5219 2.00776
RightHand  -0.173459 -0.50257 -4.08854
LeftUpLeg  -49.1329 15.5533 -21.8568
LeftLeg  41.708 -14.0705 -10.7714
LeftFoot  -18.1531 0.909338 5.84898
LeftToes  43.4945 1.31378e-006 1.14341e-007
401
root  -38.6936 31.7985 -6.92077 -157.818 -54.8415 -163.621
RightUpLeg  -77.7171 -1.83446 24.4408
RightLeg  38.5898 10.2577 7.06562
RightFoot  4.42929 -0.0089091 0.717154
RightToes  -49.5398 -0.298816 -0.362434
Spine  9.4288 -5.11329 5.53398
Spine1  16.4462 -12.5674 13.8525
HEad  -64.74 4.47935 -4.20054
LeftShoulder1  -1.94126e-019 -3.10601e-018 -2.51263e-017
LeftArm  -6.72204 -10.9272 -87.2736
LeftForeArm  33.4415 -53.9229 -12.4727
LeftHand  -0.429708 -6.66152 4.48127
RightShoulder  -4.96962e-017 0 -2.36833e-017
RightArm  -36.2809 -28.4445 50.6604
RightForeArm  58.2852 9.24836 1.4966
RightHand  -0.255312 -1.51975 -7.50486
LeftUpLeg  -47.9553 18.2428 -22.7492
LeftLeg  48.3562 -19.6008 -18.3571
LeftFoot  -11.0984 0.530488 5.61749
LeftToes  18.7385 1.31378e-006 1.14341e-007
402
root  -40.8783 31.2854 -7.44164 -153.656 -58.6683 -171.348
RightUpLeg  -73.9725 -0.416188 21.0034
RightLeg  33.5403 9.14537 5.20146
RightFoot  4.61582 -0.00645739 0.653494
RightToes  -44.4257 -0.254768 -0.338733
Spine  9.44931 -5.2476 5.41709
Spine1  16.8614 -12.6603 13.2192
HEad  -63.1648 1.10612 -0.502098
LeftShoulder1  -1.94126e-019 -3.10601e-018 -2.51263e-017
LeftArm  -8.06819 -7.46581 -87.1296
LeftForeArm  32.7902 -49.6123 -10.5189
LeftHand  -0.667673 -5.59238 7.36853
RightShoulder  -4.96962e-017 0 -2.36833e-017
RightArm  -38.8744 -28.2538 52.3374
RightForeArm  56.1233 10.6907 1.54495
RightHand  -0.28462 -2.39889 -10.7448
LeftUpLeg  -45.8189 19.2283 -23.3277
LeftLeg  59.2533 -21.963 -28.6291
LeftFoot  0.755458 0.00511754 -0.614877
LeftToes  -46.9271 1.31378e-006 1.14341e-007
403
root  -42.9539 30.3934 -7.98177 -146.129 -62.787 177.418
RightUpLeg  -71.2857 0.525215 13.7395
RightLeg  32.787 8.18472 4.5201
RightFoot  11.6134 -0.126871 1.73802
RightToes  26.187 0.00727389 0.253877
Spine  8.90925 -4.96965 5.02925
Spine1  16.2283 -11.8139 11.972
HEad  -61.99 -5.01427 2.99699
LeftShoulder1  -1.94126e-019 -3.10601e-018 -2.51263e-017
LeftArm  -8.23119 -5.50255 -85.7973
LeftForeArm  31.975 -42.4466 -7.96576
LeftHand  -0.744825 -4.19673 9.28758
RightShoulder  -4.96962e-017 0 -2.36833e-017
RightArm  -37.966 -31.2816 54.6644
RightForeArm  49.9938 13.942 1.49316
RightHand  -0.203416 -3.57777 -12.2913
LeftUpLeg  -46.5369 17.1615 -22.1353
LeftLeg  72.179 -14.4547 -32.3757
LeftFoot  10.1423 0.661689 -7.28469
LeftToes  -56.8681 1.31378e-006 1.14341e-007
